<svg width="60" height="60" viewBox="0 0 60 60" fill="none" xmlns="http://www.w3.org/2000/svg">
<path fill-rule="evenodd" clip-rule="evenodd" d="M20.1084 36.8889V29.0459H23.0179C23.6302 29.0459 24.1381 29.1247 24.5414 29.2824C24.9447 29.4401 25.2472 29.6894 25.4489 30.0304C25.6506 30.3714 25.7514 30.8187 25.7514 31.3724C25.7514 31.8637 25.6616 32.3001 25.4819 32.6814C25.3022 33.0627 25.0052 33.3616 24.5909 33.5779C24.1766 33.7942 23.6174 33.9024 22.9134 33.9024H21.3844V36.8889H20.1084ZM22.6439 32.8519H21.3844V30.0964H22.9299C23.0986 30.0964 23.2709 30.111 23.4469 30.1404C23.6266 30.1697 23.7897 30.2284 23.9364 30.3164C24.0867 30.4007 24.2077 30.5291 24.2994 30.7014C24.3911 30.8701 24.4369 31.0974 24.4369 31.3834C24.4369 31.7317 24.3727 32.014 24.2444 32.2304C24.1197 32.4467 23.9254 32.6044 23.6614 32.7034C23.3974 32.8024 23.0582 32.8519 22.6439 32.8519Z" fill="#134D6F"/>
<path fill-rule="evenodd" clip-rule="evenodd" d="M27.1071 36.8889V29.0459H29.9946C30.5959 29.0459 31.1294 29.1339 31.5951 29.3099C32.0644 29.4822 32.4604 29.737 32.7831 30.0744C33.1057 30.4081 33.3496 30.8151 33.5146 31.2954C33.6832 31.7757 33.7676 32.3239 33.7676 32.9399C33.7676 33.4935 33.6924 34.0105 33.5421 34.4909C33.3954 34.9676 33.1607 35.3856 32.8381 35.7449C32.5191 36.1042 32.0974 36.3847 31.5731 36.5864C31.0487 36.788 30.4107 36.8889 29.6591 36.8889H27.1071ZM28.3996 35.8329H29.6646C30.3429 35.8329 30.8837 35.7064 31.2871 35.4534C31.6904 35.2004 31.9801 34.8539 32.1561 34.4139C32.3321 33.9739 32.4201 33.4752 32.4201 32.9179C32.4201 32.4925 32.3687 32.1075 32.2661 31.7629C32.1634 31.4146 32.0039 31.1175 31.7876 30.8719C31.5712 30.6226 31.2962 30.4319 30.9626 30.2999C30.6289 30.1679 30.2311 30.1019 29.7691 30.1019H28.3996V35.8329Z" fill="#134D6F"/>
<path d="M35.1959 36.8889H36.4609V33.5229H39.8984V32.4669H36.4609V30.1404H40.1019V29.0459H35.1959V36.8889Z" fill="#134D6F"/>
<path fill-rule="evenodd" clip-rule="evenodd" d="M10 7.11111C10 5.94518 10.9452 5 12.1111 5H37.2371C37.7623 5 38.2686 5.19575 38.6572 5.54901L44.4463 10.8118L49.0692 14.9211C49.5199 15.3217 49.7778 15.8959 49.7778 16.499V52.6667C49.7778 53.8326 48.8326 54.7778 47.6667 54.7778H12.1111C10.9452 54.7778 10 53.8326 10 52.6667V7.11111ZM12.1111 7C12.0497 7 12 7.04975 12 7.11111V52.6667C12 52.728 12.0497 52.7778 12.1111 52.7778H47.6667C47.728 52.7778 47.7778 52.728 47.7778 52.6667V17.5555H38.7774C37.6114 17.5555 36.6663 16.6103 36.6663 15.4444V7H12.1111ZM43.1134 12.303L46.7725 15.5555H38.7774C38.716 15.5555 38.6663 15.5058 38.6663 15.4444V8.26018L43.1051 12.2955L43.1134 12.303Z" fill="#134D6F"/>
</svg>
