<?xml version="1.0" encoding="utf-8"?>
<svg id="_Слой_1" data-name="Слой 1" xmlns="http://www.w3.org/2000/svg" viewBox="95.751 387.387 348.418 105.475">
  <defs>
    <style>
      .cls-1 {
        fill: #9bd4f1;
      }

      .cls-2 {
        fill: #d7edfc;
      }

      .cls-3 {
        fill: #171931;
      }
    </style>
  </defs>
  <g style="" transform="matrix(0.424868, 0, 0, 0.424868, 57.076092, 224.00238)">
    <g>
      <g>
        <path class="cls-2" d="m209.75,424.16c-9.56,0-17.34-7.78-17.34-17.34s7.78-17.34,17.34-17.34,17.34,7.78,17.34,17.34-7.78,17.34-17.34,17.34Zm0-25.52c-4.51,0-8.18,3.67-8.18,8.18s3.67,8.18,8.18,8.18,8.18-3.67,8.18-8.18-3.67-8.18-8.18-8.18Z"/>
        <g>
          <path class="cls-2" d="m151.36,416.6h-.45v-9.81h.45c8.65,0,17.13,2.17,24.5,6.29,2.81,1.56,10.27,5.72,15.92,14.38,3.78,5.8,5.11,11.15,5.61,13.17l.06.24c.21.81.58,1.76,1.07,2.74.99,1.98,2.77,3.27,5,3.62.41.07.82.1,1.21.1,1.92,0,3.66-.74,5.03-2.13l43.7-44.21,6.93,6.93-43.66,44.17c-3.24,3.28-7.5,5.05-12.01,5.05-.9,0-1.83-.07-2.75-.22-5.36-.85-9.83-4.1-12.24-8.92-.82-1.64-1.43-3.23-1.81-4.74l-.07-.27c-.43-1.72-1.43-5.76-4.3-10.17-4.33-6.63-10.05-9.81-12.48-11.17-5.91-3.3-12.73-5.04-19.73-5.04Z"/>
          <path class="cls-2" d="m273.83,421.34l-43.58,44.1c-6.71,6.78-16.03,10.67-25.6,10.67-1.88,0-3.78-.15-5.63-.44-11.48-1.83-21.04-8.8-26.22-19.16-1.43-2.85-2.52-5.74-3.24-8.58v-.02s0-.02,0-.02l-.09-.33c-.26-1.05-.65-2.64-1.78-4.37-1.77-2.71-4.31-4.13-5.83-4.97-3.92-2.18-7.92-2.64-10.59-2.64h-.35v-9.81h.35c3.95,0,9.66.7,15.37,3.89,2,1.12,6.18,3.44,9.27,8.18,2.03,3.11,2.75,5.99,3.09,7.37l.08.32c.55,2.15,1.39,4.36,2.51,6.59,3.75,7.49,10.67,12.55,18.99,13.87,1.36.22,2.73.32,4.09.32,6.93,0,13.68-2.76,18.62-7.76l43.62-44.14,6.94,6.94Z"/>
        </g>
      </g>
      <g>
        <path class="cls-2" d="m209.97,575.84c9.56,0,17.34,7.78,17.34,17.34s-7.78,17.34-17.34,17.34-17.34-7.78-17.34-17.34,7.78-17.34,17.34-17.34Zm0,25.52c4.51,0,8.18-3.67,8.18-8.18s-3.67-8.18-8.18-8.18-8.18,3.67-8.18,8.18,3.67,8.18,8.18,8.18Z"/>
        <g>
          <path class="cls-2" d="m268.36,583.4h.45v9.81h-.45c-8.65,0-17.13-2.17-24.5-6.29-2.81-1.56-10.27-5.72-15.92-14.38-3.78-5.8-5.11-11.15-5.61-13.17l-.06-.24c-.21-.81-.58-1.76-1.07-2.74-.99-1.98-2.77-3.27-5-3.62-.41-.07-.82-.1-1.21-.1-1.92,0-3.66.74-5.03,2.13l-43.7,44.21-6.93-6.93,43.66-44.17c3.24-3.28,7.5-5.05,12.01-5.05.9,0,1.83.07,2.75.22,5.36.85,9.83,4.1,12.24,8.92.82,1.64,1.43,3.23,1.81,4.74l.07.27c.43,1.72,1.43,5.76,4.3,10.17,4.33,6.63,10.05,9.81,12.48,11.17,5.91,3.3,12.73,5.04,19.73,5.04Z"/>
          <path class="cls-2" d="m145.9,578.66l43.58-44.1c6.71-6.78,16.03-10.67,25.6-10.67,1.88,0,3.78.15,5.63.44,11.48,1.83,21.04,8.8,26.22,19.16,1.43,2.85,2.52,5.74,3.24,8.58v.02s0,.02,0,.02l.09.33c.26,1.05.65,2.64,1.78,4.37,1.77,2.71,4.31,4.13,5.83,4.97,3.92,2.18,7.92,2.64,10.59,2.64h.35v9.81h-.35c-3.95,0-9.66-.7-15.37-3.89-2-1.12-6.18-3.44-9.27-8.18-2.03-3.11-2.75-5.99-3.09-7.37l-.08-.32c-.55-2.15-1.39-4.36-2.51-6.59-3.75-7.49-10.67-12.55-18.99-13.87-1.36-.22-2.73-.32-4.09-.32-6.93,0-13.68,2.76-18.62,7.76l-43.62,44.14-6.94-6.94Z"/>
        </g>
      </g>
      <g>
        <path class="cls-1" d="m285.6,499.42c0-9.56,7.78-17.34,17.34-17.34,9.56,0,17.34,7.78,17.34,17.34,0,9.56-7.78,17.34-17.34,17.34-9.56,0-17.34-7.78-17.34-17.34Zm25.52,0c0-4.51-3.67-8.18-8.18-8.18-4.51,0-8.18,3.67-8.18,8.18,0,4.51,3.67,8.18,8.18,8.18,4.51,0,8.18-3.67,8.18-8.18Z"/>
        <g>
          <path class="cls-1" d="m293.16,441.03v-.45s9.81,0,9.81,0v.45c0,8.65-2.17,17.13-6.29,24.5-1.56,2.81-5.72,10.27-14.38,15.92-5.8,3.78-11.15,5.11-13.17,5.61l-.24.06c-.81.21-1.76.58-2.74,1.07-1.98.99-3.27,2.77-3.62,5-.07.41-.1.82-.1,1.21,0,1.92.74,3.66,2.13,5.03l44.21,43.7-6.93,6.93-44.17-43.66c-3.28-3.24-5.05-7.5-5.05-12.01,0-.9.07-1.83.22-2.75.85-5.36,4.1-9.83,8.92-12.24,1.64-.82,3.23-1.43,4.74-1.81l.27-.07c1.72-.43,5.76-1.43,10.17-4.3,6.63-4.33,9.81-10.05,11.17-12.48,3.3-5.91,5.04-12.73,5.04-19.73Z"/>
          <path class="cls-1" d="m288.42,563.49l-44.1-43.58c-6.78-6.71-10.67-16.03-10.67-25.6,0-1.88.15-3.78.44-5.63,1.83-11.48,8.8-21.04,19.16-26.22,2.85-1.43,5.74-2.52,8.58-3.24h.02s.02,0,.02,0l.33-.09c1.05-.26,2.64-.65,4.37-1.78,2.71-1.77,4.13-4.31,4.97-5.83,2.18-3.92,2.64-7.92,2.64-10.59v-.35s9.81,0,9.81,0v.35c0,3.95-.7,9.66-3.89,15.37-1.12,2-3.44,6.18-8.18,9.27-3.11,2.03-5.99,2.75-7.37,3.09l-.32.08c-2.15.55-4.36,1.39-6.59,2.51-7.49,3.75-12.55,10.67-13.87,18.99-.22,1.36-.32,2.73-.32,4.09,0,6.93,2.76,13.68,7.76,18.62l44.14,43.62-6.94,6.94Z"/>
        </g>
      </g>
      <g>
        <path class="cls-1" d="m133.92,499.07c0,9.56-7.78,17.34-17.34,17.34-9.56,0-17.34-7.78-17.34-17.34,0-9.56,7.78-17.34,17.34-17.34,9.56,0,17.34,7.78,17.34,17.34Zm-25.52,0c0,4.51,3.67,8.18,8.18,8.18,4.51,0,8.18-3.67,8.18-8.18,0-4.51-3.67-8.18-8.18-8.18-4.51,0-8.18,3.67-8.18,8.18Z"/>
        <g>
          <path class="cls-1" d="m126.36,557.46v.45s-9.81,0-9.81,0v-.45c0-8.65,2.17-17.13,6.29-24.5,1.56-2.81,5.72-10.27,14.38-15.92,5.8-3.78,11.15-5.11,13.17-5.61l.24-.06c.81-.21,1.76-.58,2.74-1.07,1.98-.99,3.27-2.77,3.62-5,.07-.41.1-.82.1-1.21,0-1.92-.74-3.66-2.13-5.03l-44.21-43.7,6.93-6.93,44.17,43.66c3.28,3.24,5.05,7.5,5.05,12.01,0,.9-.07,1.83-.22,2.75-.85,5.36-4.1,9.83-8.92,12.24-1.64.82-3.23,1.43-4.74,1.81l-.27.07c-1.72.43-5.76,1.43-10.17,4.3-6.63,4.33-9.81,10.05-11.17,12.48-3.3,5.91-5.04,12.73-5.04,19.73Z"/>
          <path class="cls-1" d="m131.1,434.99l44.1,43.58c6.78,6.71,10.67,16.03,10.67,25.6,0,1.88-.15,3.78-.44,5.63-1.83,11.48-8.8,21.04-19.16,26.22-2.85,1.43-5.74,2.52-8.58,3.24h-.02s-.02,0-.02,0l-.33.09c-1.05.26-2.64.65-4.37,1.78-2.71,1.77-4.13,4.31-4.97,5.83-2.18,3.92-2.64,7.92-2.64,10.59v.35s-9.81,0-9.81,0v-.35c0-3.95.7-9.66,3.89-15.37,1.12-2,3.44-6.18,8.18-9.27,3.11-2.03,5.99-2.75,7.37-3.09l.32-.08c2.15-.55,4.36-1.39,6.59-2.51,7.49-3.75,12.55-10.67,13.87-18.99.22-1.36.32-2.73.32-4.09,0-6.93-2.76-13.68-7.76-18.62l-44.14-43.62,6.94-6.94Z"/>
        </g>
      </g>
    </g>
    <g>
      <g>
        <path class="cls-1" d="m358.92,533.22v-23.41h3.75v19.96h11v-19.96h3.75v23.41h-18.49Zm18.69,5.95v-5.95h-2.31v-3.44h5.84v9.4h-3.53Z"/>
        <path class="cls-1" d="m391.8,533.22v-23.41h15.13v3.31h-11.39v6.32h9.83v3.13h-9.83v7.31h11.49v3.34h-15.23Z"/>
        <path class="cls-1" d="m418.97,533.22v-23.41h3.75v9.3h11.34v-9.3h3.75v23.41h-3.75v-10.67h-11.34v10.67h-3.75Z"/>
        <path class="cls-1" d="m455.04,533.22v-19.97h-6.59v-3.44h16.92v3.44h-6.59v19.97h-3.75Z"/>
        <path class="cls-1" d="m476,533.22v-23.41h8.48c1.66,0,3.13.29,4.41.86,1.28.58,2.28,1.4,3,2.48.72,1.08,1.09,2.37,1.09,3.89s-.33,2.84-1,3.9c-.67,1.06-1.64,1.88-2.92,2.43-1.28.56-2.83.84-4.66.84h-4.65v9.01h-3.75Zm3.75-12.24h4.7c1.52,0,2.69-.32,3.53-.95.84-.64,1.25-1.61,1.25-2.93s-.43-2.28-1.29-2.97c-.86-.69-2.01-1.03-3.46-1.03h-4.73v7.88Z"/>
        <path class="cls-1" d="m523.21,533.22v-19.97h-6.59v-3.44h16.92v3.44h-6.59v19.97h-3.75Z"/>
        <path class="cls-1" d="m544.18,533.22v-23.41h8.04c2.24,0,4.05.5,5.43,1.5,1.38,1,2.07,2.47,2.07,4.42,0,.73-.17,1.44-.53,2.1-.35.66-.81,1.25-1.36,1.75-.56.5-1.14.87-1.74,1.1,1.27.39,2.33,1.1,3.19,2.14.85,1.04,1.28,2.31,1.28,3.83,0,1.28-.32,2.42-.97,3.4-.65.99-1.57,1.76-2.76,2.32-1.19.56-2.61.84-4.25.84h-8.41Zm3.75-13.41h3.71c.9,0,1.68-.15,2.34-.44s1.17-.71,1.54-1.25.55-1.2.55-1.96c0-1.1-.39-1.95-1.16-2.53-.78-.59-1.88-.88-3.32-.88h-3.66v7.06Zm0,10.47h4.03c1.59,0,2.78-.31,3.57-.94.79-.63,1.18-1.58,1.18-2.85s-.39-2.2-1.18-2.87c-.79-.66-2-.99-3.64-.99h-3.96v7.66Z"/>
        <path class="cls-1" d="m582.94,533.73c-1.76,0-3.39-.31-4.89-.93-1.5-.62-2.81-1.48-3.92-2.58s-1.98-2.4-2.59-3.88c-.61-1.48-.92-3.09-.92-4.82s.31-3.35.92-4.83c.61-1.48,1.48-2.78,2.59-3.88,1.12-1.1,2.42-1.96,3.92-2.58,1.5-.61,3.13-.92,4.89-.92s3.37.31,4.87.94c1.49.62,2.8,1.49,3.91,2.61,1.12,1.12,1.98,2.41,2.6,3.89.62,1.48.93,3.07.93,4.77s-.31,3.33-.93,4.82c-.62,1.48-1.48,2.78-2.6,3.88s-2.42,1.96-3.91,2.58c-1.49.62-3.12.93-4.87.93Zm0-3.54c1.18,0,2.28-.2,3.3-.61s1.91-.99,2.67-1.76c.76-.76,1.35-1.68,1.78-2.74.43-1.06.64-2.25.64-3.55,0-1.75-.37-3.27-1.11-4.57-.74-1.3-1.75-2.31-3.02-3.02-1.27-.71-2.69-1.07-4.26-1.07-1.18,0-2.28.2-3.3.61s-1.91.99-2.67,1.76c-.76.76-1.36,1.67-1.79,2.73-.43,1.06-.64,2.25-.64,3.56,0,1.75.37,3.27,1.12,4.57.75,1.3,1.75,2.3,3.02,3.02,1.27.71,2.69,1.07,4.27,1.07Z"/>
        <path class="cls-1" d="m606.56,533.22v-23.41h8.48c1.66,0,3.13.29,4.41.86,1.28.58,2.28,1.4,3,2.48.72,1.08,1.09,2.37,1.09,3.89s-.33,2.84-1,3.9c-.67,1.06-1.64,1.88-2.92,2.43-1.28.56-2.83.84-4.66.84h-4.65v9.01h-3.75Zm3.75-12.24h4.7c1.52,0,2.69-.32,3.53-.95.84-.64,1.25-1.61,1.25-2.93s-.43-2.28-1.29-2.97c-.86-.69-2.01-1.03-3.46-1.03h-4.73v7.88Z"/>
        <path class="cls-1" d="m648.32,533.22v-9.53c-.99.26-1.96.46-2.91.62-.95.16-1.97.23-3.06.23-1.81,0-3.35-.29-4.62-.88-1.28-.59-2.25-1.5-2.93-2.76-.68-1.25-1.02-2.89-1.02-4.89v-6.2h3.75v5.65c0,2.06.46,3.52,1.38,4.36.92.85,2.24,1.27,3.97,1.27,1.1,0,2.08-.06,2.93-.17.85-.11,1.69-.27,2.52-.47v-10.65h3.75v23.41h-3.75Z"/>
        <path class="cls-1" d="m664.85,533.22v-23.41h15.13v3.31h-11.39v6.32h9.83v3.13h-9.83v7.31h11.49v3.34h-15.23Z"/>
        <path class="cls-1" d="m702.69,533.73c-2.43,0-4.55-.5-6.37-1.5-1.82-1-3.23-2.42-4.24-4.25-1.01-1.83-1.51-3.97-1.51-6.44,0-1.78.3-3.42.89-4.91.6-1.49,1.44-2.78,2.52-3.87,1.09-1.09,2.37-1.94,3.85-2.54,1.48-.6,3.11-.9,4.88-.9s3.33.22,4.62.67c1.3.45,2.43,1.08,3.4,1.91l-1.94,3.06c-.74-.68-1.59-1.18-2.58-1.51-.98-.33-2.06-.49-3.24-.49-1.3,0-2.48.2-3.53.59-1.05.4-1.94.97-2.68,1.71-.74.75-1.31,1.65-1.71,2.7-.4,1.05-.59,2.24-.59,3.55,0,1.81.35,3.35,1.06,4.63.71,1.28,1.71,2.26,3.01,2.93,1.3.67,2.83,1.01,4.61,1.01,1.17,0,2.3-.18,3.4-.53,1.1-.35,2.13-.92,3.1-1.71l1.74,3.16c-1.13.88-2.41,1.56-3.85,2.02-1.44.47-3.06.7-4.86.7Z"/>
        <path class="cls-1" d="m722.04,533.22v-23.41h3.75v9.3h4.35v3.44h-4.35v10.67h-3.75Zm14.5,0l-9.58-12.36,8.51-11.05h4.62l-8.56,11.04,9.85,12.37h-4.83Z"/>
        <path class="cls-1" d="m751.97,533.22v-23.41h3.73v17.29l11.7-17.29h3.61v23.41h-3.71v-17.41l-11.76,17.41h-3.58Z"/>
        <path class="cls-1" d="m781.65,533.22l7.59-11.99-7.19-11.42h4.48l5.4,8.64,5.77-8.64h4.35l-7.56,11.52,7.77,11.89h-4.5l-5.99-9.21-5.77,9.21h-4.36Z"/>
        <path class="cls-1" d="m358.92,573.36v-23.41h3.73v17.29l11.7-17.29h3.61v23.41h-3.71v-17.41l-11.76,17.41h-3.58Z"/>
        <path class="cls-1" d="m390.76,573.36v-23.41h3.75v9.3h11.34v-9.3h3.75v23.41h-3.75v-10.67h-11.34v10.67h-3.75Z"/>
        <path class="cls-1" d="m422.38,573.36v-23.41h3.73v17.29l11.7-17.29h3.61v23.41h-3.71v-17.41l-11.76,17.41h-3.58Z"/>
        <path class="cls-1" d="m454.22,573.36v-23.41h3.75v19.96h11v-19.96h3.75v23.41h-18.49Zm18.69,5.95v-5.95h-2.31v-3.44h5.84v9.4h-3.53Z"/>
        <path class="cls-1" d="m487.09,573.36v-23.41h3.73v17.29l11.7-17.29h3.61v23.41h-3.71v-17.41l-11.76,17.41h-3.58Z"/>
        <path class="cls-1" d="m516.24,573.36l9.1-23.41h4.06l9.33,23.41h-4.23l-2.16-5.58h-9.92l-2.07,5.58h-4.11Zm7.16-8.81h7.94l-4.05-10.18-3.9,10.18Z"/>
        <path class="cls-1" d="m551.75,573.36v-19.97h-6.59v-3.44h16.92v3.44h-6.59v19.97h-3.75Z"/>
        <path class="cls-1" d="m572.72,573.36v-23.41h3.73v17.29l11.7-17.29h3.61v23.41h-3.71v-17.41l-11.76,17.41h-3.58Z"/>
        <path class="cls-1" d="m604.56,573.36v-23.41h8.04c2.24,0,4.05.5,5.43,1.5,1.38,1,2.07,2.47,2.07,4.42,0,.73-.17,1.44-.53,2.1-.35.66-.81,1.25-1.36,1.75-.56.5-1.14.87-1.74,1.1,1.27.39,2.33,1.1,3.19,2.14.85,1.04,1.28,2.31,1.28,3.83,0,1.28-.32,2.42-.97,3.4-.65.99-1.57,1.76-2.76,2.32s-2.61.84-4.25.84h-8.41Zm3.75-13.41h3.71c.9,0,1.68-.15,2.34-.44s1.17-.71,1.54-1.25.55-1.2.55-1.96c0-1.1-.39-1.95-1.16-2.53-.78-.59-1.88-.88-3.32-.88h-3.66v7.06Zm0,10.47h4.03c1.59,0,2.78-.31,3.57-.94.79-.63,1.18-1.58,1.18-2.85s-.39-2.2-1.18-2.87c-.79-.66-2-.99-3.64-.99h-3.96v7.66Z"/>
      </g>
      <g>
        <path class="cls-2" d="m416.57,479.46l-14.39,5.69c-.95-1.84-2.71-4.64-5.3-8.42-2.58-3.78-6.21-9.08-10.89-15.91h-.18c-3.8,5.45-7.26,10.51-10.37,15.2-3.11,4.68-4.99,7.71-5.63,9.09l-13.93-5.33c.86-1.38,2.81-4.22,5.85-8.52,3.04-4.3,7.41-10.43,13.1-18.39v-.18c-3.33-5.11-6.9-10.34-10.69-15.68-3.79-5.34-6.18-8.84-7.16-10.49l14.35-5.37c.8,1.62,2.57,4.44,5.31,8.45,2.74,4.01,6.02,8.72,9.82,14.14h.23c3.34-5.05,6.52-9.79,9.54-14.23,3.02-4.44,4.81-7.22,5.36-8.36l13.84,5.05c-.74,1.26-3.05,4.55-6.94,9.87-3.89,5.33-7.58,10.61-11.07,15.84v.18c4.35,6.15,8.21,11.55,11.6,16.21,3.38,4.65,5.9,8.37,7.56,11.16Z"/>
        <path class="cls-2" d="m504.89,453.15c0,4.9-.88,9.41-2.64,13.54-1.76,4.13-4.25,7.68-7.46,10.65-3.03,2.82-6.43,4.91-10.19,6.27-3.76,1.36-7.79,2.04-12.07,2.04s-8.2-.65-11.94-1.95-7.06-3.25-9.96-5.85c-3.28-2.94-5.85-6.52-7.71-10.74-1.87-4.22-2.8-8.89-2.8-14,0-4.74.77-9.07,2.32-12.97,1.54-3.9,3.89-7.41,7.05-10.54,2.88-2.88,6.27-5.08,10.19-6.61,3.92-1.53,8.17-2.3,12.76-2.3s8.67.71,12.51,2.14c3.84,1.42,7.22,3.51,10.12,6.27,3.27,3.09,5.73,6.7,7.37,10.81,1.64,4.12,2.46,8.53,2.46,13.25Zm-15.61.48c0-3.09-.52-6.15-1.56-9.19-1.04-3.04-2.63-5.56-4.77-7.54-1.35-1.28-2.89-2.29-4.64-3.03-1.74-.73-3.69-1.1-5.83-1.1s-4.06.37-5.83,1.12c-1.77.75-3.41,1.86-4.91,3.32-1.9,1.9-3.37,4.27-4.43,7.13-1.06,2.86-1.58,5.8-1.58,8.83,0,3.33.53,6.39,1.58,9.17,1.06,2.78,2.59,5.12,4.61,7.02,1.35,1.28,2.92,2.31,4.73,3.07,1.81.76,3.77,1.15,5.88,1.15s3.97-.37,5.76-1.1c1.79-.73,3.4-1.79,4.84-3.16,1.87-1.77,3.36-4.05,4.48-6.83,1.12-2.78,1.68-5.73,1.68-8.85Z"/>
        <path class="cls-2" d="m583.79,444.2c0,4.56-1.3,8.56-3.91,12.01-2.61,3.44-6.16,5.99-10.67,7.64-2.42.95-5.23,1.65-8.44,2.11-3.2.46-6.35.7-9.45.73l.09,17.17h-15.2c.03-2.78.07-6.59.12-11.41.05-4.82.07-12.07.07-21.74,0-3.46-.02-7.66-.05-12.6-.03-4.94-.08-10.18-.14-15.72,1.47-.03,3.11-.05,4.92-.07,1.81-.02,3.48-.02,5.01-.02,6.59,0,11.8.29,15.65.87,3.85.58,7.24,1.59,10.18,3.03,3.77,1.78,6.68,4.19,8.73,7.23,2.05,3.05,3.08,6.63,3.08,10.77Zm-15.61.96c0-2.36-.53-4.41-1.58-6.15-1.06-1.74-2.66-3.14-4.8-4.18-1.44-.73-2.98-1.19-4.61-1.35-1.64-.17-3.3-.25-4.98-.25h-1.38c0,.43-.02,2.21-.05,5.35-.03,3.14-.05,5.69-.05,7.64v11.34h1.47c1.5,0,3.15-.13,4.94-.39,1.79-.26,3.28-.7,4.48-1.31,2.14-1.04,3.77-2.39,4.89-4.06,1.12-1.67,1.68-3.88,1.68-6.63Z"/>
        <path class="cls-2" d="m658.93,483.87c-1.1,0-4.15-.02-9.14-.05-4.99-.03-9.95-.05-14.88-.05-4.25,0-8.4.02-12.44.05s-6.98.05-8.81.05c.03-1.62.07-5.15.12-10.59.05-5.44.07-12.32.07-20.65,0-3.52-.02-8.01-.05-13.46-.03-5.45-.08-11.01-.14-16.68,2.08,0,5.04,0,8.88.02,3.84.02,7.7.02,11.59.02,5.29,0,10.48,0,15.56-.02,5.08-.02,7.96-.02,8.63-.02v11.34c-.52,0-2.53-.02-6.01-.05-3.49-.03-6.99-.05-10.51-.05-2.05,0-4.44,0-7.16.02-2.72.02-4.87.02-6.43.02,0,2.3-.02,4.73-.05,7.28-.03,2.55-.05,4.85-.05,6.91,1.59,0,3.62,0,6.08.02,2.46.02,4.49.02,6.08.02,3.95,0,7.64-.02,11.09-.05,3.44-.03,5.64-.05,6.59-.05v9.14c-.61,0-2.98-.02-7.12-.05-4.13-.03-7.59-.05-10.38-.05-1.56,0-3.6,0-6.13.02-2.53.02-4.6.02-6.22.02,0,3.58,0,6.65.02,9.21.02,2.56.04,4.64.07,6.27,1.84.03,4.29.05,7.35.07,3.06.02,5.83.02,8.31.02,3.49,0,6.66-.02,9.5-.05,2.85-.03,4.7-.05,5.56-.05v11.39Z"/>
        <path class="cls-2" d="m772.82,422.39c0,5.02-.05,11.68-.14,19.98-.09,8.3-.14,14.56-.14,18.78l.18.09c7.19-8.45,14.11-16.78,20.75-24.98,6.64-8.21,10.64-13.12,11.98-14.74l11.89,4.77c-.06,5.66-.11,10.97-.14,15.91-.03,4.94-.05,8.99-.05,12.14,0,7.74.02,14.22.07,19.42.05,5.2.08,8.57.12,10.1h-14.14c0-2.14.04-7.89.11-17.24.08-9.35.12-17.31.12-23.89l-.23-.09c-1.44,1.69-5.46,6.55-12.05,14.59-6.6,8.04-13.77,17.21-21.51,27.5l-10.97-4.45c0-1.47.02-4.96.07-10.48.05-5.51.07-11.75.07-18.7,0-3.06-.02-7.28-.05-12.66-.03-5.38-.08-10.73-.14-16.06h14.19Z"/>
        <path class="cls-2" d="m853.23,468.88c3.6-4.15,6.99-8.23,10.17-12.24v-.28c-2.27-1.41-4.48-3.5-6.66-6.29-2.17-2.79-3.26-6.14-3.26-10.05,0-3.43,1.03-6.51,3.1-9.25,2.07-2.74,5.23-4.81,9.48-6.22,2.97-1.01,6.13-1.65,9.48-1.93,3.35-.28,7.31-.41,11.87-.41,2.42,0,5.03.03,7.83.09,2.8.06,4.64.09,5.53.09-.09,8.42-.15,14.91-.16,19.47-.02,4.56-.02,8.06-.02,10.51,0,9.18.02,16.12.07,20.82.05,4.7.08,8.26.12,10.67h-15.2c.03-2.63.06-6.91.09-12.83.03-5.92.05-11.38.05-16.37,0-3.03,0-6.45-.02-10.26-.01-3.81-.04-7.54-.07-11.18h-.87c-.43,0-1.06,0-1.88,0-1.38,0-2.8.07-4.27.21-1.47.14-2.89.5-4.27,1.08-1.68.7-3.01,1.79-3.97,3.26-.96,1.47-1.45,3.14-1.45,5,0,1.96.29,3.57.87,4.82s1.44,2.45,2.57,3.58c1.1,1.07,2.48,2.02,4.13,2.85,1.65.83,2.99,1.35,4,1.56l.23.92c-6.79,8.94-11.85,15.53-15.18,19.79-3.33,4.25-5.56,7.21-6.7,8.86l-14.02-5.46c2.01-3.06,4.82-6.66,8.43-10.81Z"/>
        <g>
          <path class="cls-2" d="m706.79,483.87h-15.2c.03-2.6.07-6.37.12-11.29s.07-11.62.07-20.06c0-3.55-.02-8.04-.05-13.47-.03-5.43-.08-10.98-.14-16.64h15.2c-.03,4.19-.07,9.02-.12,14.48-.05,5.46-.07,10.32-.07,14.58,0,8.66.02,15.36.07,20.09.05,4.73.08,8.84.12,12.33Z"/>
          <rect class="cls-2" x="702.79" y="422.39" width="25.02" height="11.31"/>
        </g>
      </g>
    </g>
  </g>
</svg>