<svg width="24" height="24" viewBox="0 0 24 24" fill="none" xmlns="http://www.w3.org/2000/svg">
<path d="M1.49969 7C2.28719 7 3.48719 7 4.16219 7C4.49969 7 4.76219 7.225 4.87469 7.525C5.21219 8.5 5.96219 10.6375 6.82469 12.1C7.98719 14.0125 8.73719 14.725 9.22469 14.65C9.71219 14.5375 9.56219 13.2625 9.56219 12.25C9.56219 11.2375 9.67469 9.5125 9.18719 8.725L8.43719 7.6375C8.24969 7.375 8.43719 7.0375 8.73719 7.0375H13.0122C13.4247 7.0375 13.7622 7.375 13.7622 7.7875V13.225C13.7622 13.225 13.9497 14.2 14.9997 13.1875C16.0497 12.175 17.1747 10.3 18.1122 8.3875L18.4872 7.4875C18.5997 7.225 18.8622 7.0375 19.1622 7.0375H21.9372C22.4622 7.0375 22.8372 7.5625 22.6497 8.05L22.3497 8.8375C22.3497 8.8375 21.3372 10.8625 20.2872 12.2875C19.2372 13.75 19.0122 14.0875 19.1622 14.4625C19.3122 14.8375 22.0122 17.35 22.6872 18.55C22.8747 18.8875 23.0247 19.1875 23.1747 19.45C23.4372 19.9375 23.0622 20.575 22.4997 20.575H19.3497C19.0872 20.575 18.8247 20.425 18.7122 20.2L18.4122 19.7125C18.4122 19.7125 16.4997 17.4625 15.3372 16.75C14.1372 16.075 14.1747 17.05 14.1747 17.05V19.0375C14.1747 19.8625 13.4997 20.5375 12.6747 20.5375H11.9247C11.9247 20.5375 7.79969 20.5375 4.49969 15.625C1.91219 11.8 1.04969 9.325 0.749691 7.9C0.674691 7.45 1.01219 7 1.49969 7Z" fill="#92C4CA"/>
</svg>
