<svg width="24" height="24" viewBox="0 0 24 24" fill="none" xmlns="http://www.w3.org/2000/svg">
<path d="M12.2059 21.0469C9.52936 20.9626 6.98405 20.8969 4.43873 20.7985C3.8903 20.7751 3.33248 20.6907 2.79811 20.5641C1.79498 20.3297 1.10123 19.7251 0.744983 18.736C0.459045 17.9391 0.35592 17.1188 0.28092 16.2844C0.116858 14.3251 0.116858 12.3657 0.196545 10.4063C0.24342 9.30005 0.271545 8.18443 0.566858 7.11099C0.744983 6.4688 0.960608 5.84068 1.48092 5.37662C2.02936 4.88443 2.67155 4.58912 3.4028 4.5563C5.40905 4.45787 7.41061 4.33599 9.41686 4.31724C12.1169 4.28912 14.8215 4.32662 17.5215 4.37818C18.6887 4.40162 19.8653 4.46255 21.0231 4.61255C22.0825 4.75318 22.8747 5.3438 23.2965 6.37505C23.62 7.16724 23.7419 7.99693 23.8122 8.84068C23.995 10.9547 23.9997 13.0688 23.8965 15.1829C23.845 16.2563 23.7934 17.3344 23.4887 18.3797C23.1419 19.5797 22.4059 20.3719 21.1778 20.6438C20.6997 20.7469 20.2028 20.7844 19.7153 20.8032C17.1653 20.8922 14.62 20.9719 12.2059 21.0469ZM9.61373 15.7172C11.7512 14.611 13.8653 13.5141 16.0215 12.3938C13.87 11.2688 11.7559 10.1672 9.61373 9.04693C9.61373 11.2829 9.61373 13.4813 9.61373 15.7172Z" fill="#92C4CA"/>
</svg>
