<?xml version="1.0" standalone="no"?>
<!DOCTYPE svg PUBLIC "-//W3C//DTD SVG 20010904//EN"
 "http://www.w3.org/TR/2001/REC-SVG-20010904/DTD/svg10.dtd">
<svg version="1.0" xmlns="http://www.w3.org/2000/svg"
 width="1628.000000pt" height="1628.000000pt" viewBox="0 0 1628.000000 1628.000000"
 preserveAspectRatio="xMidYMid meet">
<metadata>
Created by potrace 1.14, written by Peter Selinger 2001-2017
</metadata>
<g transform="translate(0.000000,1628.000000) scale(0.100000,-0.100000)"
fill="#000000" stroke="none">
<path d="M9840 16271 c0 -6 -6 -11 -12 -11 -7 0 -25 -10 -39 -23 -15 -12 -40
-33 -56 -47 -16 -14 -52 -59 -78 -100 -133 -205 -226 -346 -233 -356 -5 -5
-15 -21 -22 -35 -7 -13 -16 -26 -20 -29 -3 -3 -17 -24 -30 -47 -13 -24 -27
-43 -32 -43 -4 0 -8 -6 -8 -13 0 -7 -7 -22 -15 -32 -31 -39 -136 -206 -145
-229 -5 -13 -11 -42 -15 -64 -8 -54 12 -60 82 -26 37 19 76 51 126 107 268
296 371 373 429 320 45 -40 124 -182 134 -239 2 -16 7 -36 10 -44 6 -15 33
-112 39 -140 2 -8 8 -27 13 -41 6 -14 13 -43 16 -63 4 -21 9 -43 13 -50 4 -6
8 -15 9 -21 1 -5 11 -45 23 -88 13 -43 24 -86 26 -95 2 -9 20 -73 40 -142 21
-69 39 -132 40 -140 11 -47 27 -87 50 -126 l26 -45 50 28 c54 29 66 44 75 95
9 46 9 276 0 318 -21 104 -36 179 -41 210 -3 19 -8 42 -10 50 -2 8 -6 26 -9
40 -3 14 -8 36 -11 50 -3 14 -8 36 -11 50 -3 14 -14 61 -26 105 -11 44 -22 87
-23 95 -2 8 -4 15 -5 15 -1 0 -3 7 -5 15 -5 24 -33 122 -45 160 -10 32 -15 49
-25 90 -2 8 -4 16 -5 18 -2 1 -3 5 -4 10 -1 4 -5 18 -10 32 -4 14 -23 77 -43
140 -19 63 -39 124 -43 135 -5 11 -14 38 -22 60 -16 50 -49 104 -79 130 -26
23 -79 33 -79 16z"/>
<path d="M8669 14975 c-2 -2 -23 -6 -46 -10 -75 -11 -194 -55 -268 -98 -81
-48 -185 -148 -247 -239 -44 -66 -128 -230 -128 -251 0 -8 -7 -20 -15 -27 -8
-7 -15 -17 -15 -22 0 -20 -89 -145 -136 -192 -64 -63 -110 -94 -218 -146 -125
-61 -198 -120 -273 -220 -50 -67 -79 -125 -127 -255 -21 -55 -41 -109 -46
-120 -15 -36 -34 -90 -37 -100 -17 -68 -138 -406 -158 -444 -28 -52 -73 -102
-120 -136 -31 -23 -166 -99 -207 -117 -16 -7 -28 -15 -28 -19 0 -4 -13 -12
-30 -19 -16 -7 -30 -16 -30 -21 0 -5 -6 -9 -13 -9 -8 0 -22 -9 -32 -20 -10
-11 -22 -20 -28 -20 -5 0 -23 -11 -41 -25 -17 -14 -49 -40 -71 -58 -83 -67
-200 -179 -275 -263 -76 -84 -240 -320 -240 -344 0 -6 -5 -10 -11 -10 -5 0 -8
-4 -4 -9 3 -5 1 -12 -4 -15 -10 -7 -91 -171 -106 -216 -1 -3 -7 -18 -14 -35
-26 -61 -101 -298 -96 -303 3 -3 1 -10 -4 -16 -6 -7 -12 -24 -15 -39 -3 -15
-12 -51 -20 -80 -12 -43 -46 -185 -61 -260 -53 -256 -130 -355 -326 -423 -41
-13 -81 -28 -89 -31 -8 -3 -17 -7 -20 -7 -3 -1 -31 -14 -64 -29 -32 -15 -65
-27 -72 -27 -8 0 -14 -4 -14 -9 0 -5 -16 -15 -35 -21 -19 -6 -35 -16 -35 -21
0 -5 -7 -9 -15 -9 -9 0 -21 -5 -28 -10 -7 -6 -51 -36 -99 -68 -198 -131 -385
-322 -530 -541 -31 -47 -61 -90 -65 -96 -4 -5 -17 -28 -28 -50 -11 -22 -23
-42 -26 -45 -7 -6 -124 -243 -156 -315 -36 -83 -114 -307 -128 -365 -1 -8 -11
-44 -20 -80 -9 -36 -19 -76 -21 -90 -3 -14 -7 -32 -9 -40 -2 -8 -7 -28 -10
-45 -2 -16 -7 -41 -10 -55 -3 -14 -8 -47 -11 -75 -3 -27 -8 -63 -10 -80 -25
-182 -25 -607 0 -800 2 -16 7 -52 10 -80 9 -69 23 -156 40 -245 8 -41 12 -78
10 -82 -3 -4 -1 -8 4 -8 5 0 9 -6 10 -12 3 -49 45 -206 91 -343 23 -66 43
-127 45 -135 19 -70 133 -302 208 -423 26 -43 48 -83 48 -88 0 -5 7 -12 15
-15 8 -4 12 -10 9 -15 -3 -5 -1 -9 4 -9 5 0 15 -12 23 -27 14 -27 167 -253
178 -263 3 -3 26 -34 50 -70 25 -36 48 -66 53 -68 4 -2 8 -9 8 -15 0 -7 11
-24 25 -39 14 -15 25 -29 25 -32 0 -3 29 -46 65 -95 61 -84 120 -131 143 -117
10 6 7 110 -3 126 -3 5 -8 20 -10 32 -4 20 -40 135 -52 168 -3 8 -7 21 -9 27
-1 7 -12 43 -23 80 -12 38 -26 86 -32 108 -6 22 -14 47 -17 55 -6 18 -5 11
-21 90 -7 36 -17 76 -21 90 -5 14 -12 41 -15 60 -7 44 -11 66 -19 108 -3 17
-8 44 -11 60 -3 15 -7 38 -10 52 -3 14 -7 39 -10 55 -3 17 -7 44 -10 60 -3 17
-8 50 -11 75 -3 25 -7 56 -9 69 -2 14 -7 54 -11 90 -3 36 -8 80 -10 96 -27
204 -24 685 6 895 9 62 17 126 25 200 2 14 4 25 5 25 1 0 3 9 5 19 2 11 11 53
21 95 9 42 18 83 19 91 2 8 4 15 5 15 1 0 3 7 5 15 5 18 25 91 29 105 16 57
51 157 81 235 55 140 218 469 256 514 5 6 28 40 50 76 23 36 45 67 50 68 5 2
9 8 9 14 0 11 24 44 130 178 86 109 149 179 285 315 163 163 217 211 345 304
30 22 60 45 67 51 7 5 15 10 18 10 3 0 24 14 47 30 22 17 47 30 55 30 7 0 13
4 13 9 0 13 203 91 283 108 183 39 368 32 602 -22 93 -22 130 -24 253 -13 17
2 16 9 -19 84 -17 37 -66 113 -110 170 -80 106 -189 280 -189 302 0 7 -4 12
-10 12 -5 0 -10 4 -10 9 0 5 -10 30 -22 57 -12 27 -23 51 -23 54 -1 3 -5 12
-8 20 -26 60 -76 221 -82 265 -3 17 -7 41 -10 55 -12 57 -18 129 -18 200 0
100 7 200 13 200 3 0 7 8 8 18 3 26 7 43 21 87 14 44 80 187 90 195 3 3 19 24
34 47 42 65 153 179 237 243 66 50 224 145 232 139 2 -1 21 7 43 18 46 23 176
68 188 65 4 -1 16 2 25 7 9 5 35 11 57 15 22 3 76 12 119 21 44 8 91 17 105
20 47 9 65 13 129 29 34 9 67 14 72 11 4 -3 10 -2 12 2 1 5 23 15 48 24 31 11
46 22 48 36 3 22 -41 96 -52 86 -3 -4 -6 -2 -6 3 0 5 -12 23 -26 39 -88 102
-159 247 -180 370 -23 140 -2 340 46 434 11 23 17 41 13 41 -4 0 3 9 15 20 12
12 22 24 22 28 0 14 95 108 140 139 97 66 233 119 380 149 14 3 52 11 85 19
33 7 78 16 100 20 46 8 70 13 70 15 0 1 9 3 20 4 55 8 145 29 145 35 0 4 -16
15 -36 26 -62 33 -142 117 -171 181 -35 75 -37 173 -4 247 20 45 114 157 133
157 4 0 25 11 46 24 31 21 174 84 207 91 5 1 23 7 38 13 15 7 40 15 55 18 47
11 89 50 99 92 11 44 3 76 -24 86 -10 4 -18 7 -18 6 0 0 -22 6 -50 14 -27 8
-66 17 -85 20 -19 3 -46 9 -60 12 -28 7 -315 15 -321 9z"/>
<path d="M10247 14109 c-4 -13 2 -26 15 -37 11 -9 26 -23 33 -29 8 -7 18 -13
23 -13 6 0 12 -3 14 -7 3 -8 33 -33 104 -88 66 -52 174 -158 217 -215 23 -30
44 -57 47 -60 20 -20 106 -194 112 -225 1 -11 6 -22 10 -25 3 -3 9 -21 12 -40
4 -19 8 -39 10 -45 15 -52 25 -184 14 -191 -4 -3 -8 -14 -8 -25 0 -26 -49
-129 -61 -129 -5 0 -9 -5 -9 -10 0 -21 -163 -150 -189 -150 -6 0 -11 -4 -11
-9 0 -5 -13 -14 -30 -21 -16 -7 -30 -16 -30 -20 0 -4 -14 -13 -30 -20 -17 -7
-29 -17 -27 -23 4 -13 129 -82 187 -103 221 -80 313 -154 387 -314 34 -72 67
-194 59 -216 -3 -7 -2 -16 3 -18 7 -5 13 -80 14 -186 0 -65 -12 -191 -20 -204
-4 -6 -8 -17 -9 -24 -6 -35 -61 -129 -98 -166 -63 -64 -102 -89 -213 -135 -55
-23 -108 -48 -117 -54 -30 -22 3 -45 119 -85 132 -45 186 -72 225 -113 36 -38
66 -100 75 -154 12 -67 6 -237 -9 -310 -16 -77 -30 -129 -48 -190 -12 -38 -23
-73 -24 -77 -1 -5 -3 -10 -4 -13 -1 -3 -3 -9 -4 -14 0 -5 -4 -13 -8 -17 -5 -4
-8 -14 -8 -21 0 -16 -62 -165 -109 -263 -29 -59 -96 -176 -103 -178 -4 -2 -8
-8 -8 -13 0 -13 -72 -117 -144 -209 -49 -62 -281 -300 -327 -335 -157 -120
-291 -215 -304 -215 -3 0 -24 -12 -47 -27 -23 -16 -163 -89 -312 -163 -256
-128 -273 -138 -308 -185 l-37 -49 42 -27 c54 -34 110 -45 257 -54 183 -12
303 -23 334 -32 11 -3 34 -7 51 -9 130 -12 402 -113 520 -193 25 -17 49 -31
52 -31 5 0 23 -14 107 -83 21 -18 64 -58 95 -90 31 -32 70 -73 87 -90 16 -18
50 -59 75 -92 24 -33 48 -64 52 -70 52 -64 182 -305 202 -375 4 -14 11 -29 15
-35 4 -5 11 -23 15 -40 10 -37 7 -27 33 -110 25 -85 40 -150 57 -260 26 -174
26 -512 -1 -710 -2 -16 -6 -54 -9 -84 -4 -30 -8 -57 -10 -61 -2 -3 -6 -25 -10
-50 -4 -25 -8 -47 -10 -51 -2 -3 -7 -21 -10 -40 -11 -62 -64 -245 -101 -345
-19 -55 -36 -105 -37 -111 0 -7 -4 -13 -9 -13 -4 0 -8 -5 -8 -11 0 -21 -120
-272 -132 -277 -5 -2 -8 -8 -8 -14 0 -23 -180 -301 -254 -394 -23 -28 -50 -63
-61 -78 -11 -16 -25 -33 -31 -40 -5 -6 -43 -49 -83 -94 -85 -97 -214 -227
-296 -298 -31 -27 -72 -64 -91 -81 -19 -18 -38 -33 -42 -33 -4 0 -20 -12 -37
-27 -40 -38 -131 -105 -245 -180 -52 -34 -99 -66 -105 -70 -28 -22 -184 -113
-193 -113 -6 0 -12 -3 -14 -8 -4 -10 -185 -112 -198 -112 -5 0 -10 -3 -10 -7
0 -5 -20 -17 -45 -28 -25 -11 -45 -24 -45 -29 0 -5 -3 -7 -6 -3 -3 3 -23 -5
-43 -18 -46 -28 -199 -106 -207 -104 -4 0 -10 -3 -13 -8 -3 -5 -76 -43 -161
-86 -194 -97 -314 -160 -320 -168 -3 -3 -23 -16 -45 -28 -41 -22 -70 -40 -89
-54 -6 -4 -47 -33 -91 -64 -44 -32 -82 -60 -85 -63 -3 -3 -30 -25 -60 -50 -93
-76 -100 -82 -199 -181 -110 -110 -131 -133 -226 -249 -108 -131 -265 -349
-265 -369 0 -5 -4 -11 -8 -13 -7 -3 -68 -99 -122 -193 -67 -116 -90 -158 -90
-166 0 -5 -5 -9 -12 -9 -6 0 -8 -3 -5 -7 4 -3 2 -12 -3 -18 -23 -27 -202 -399
-253 -525 -81 -199 -148 -407 -162 -502 -4 -23 -8 -45 -10 -48 -2 -3 -6 -24
-9 -46 -4 -22 -9 -51 -11 -64 -21 -106 -27 -534 -8 -594 20 -64 108 -93 156
-52 15 13 24 26 20 30 -3 3 -2 6 4 6 9 0 14 9 28 55 2 6 22 60 45 120 64 166
149 415 143 415 -3 0 -1 6 4 13 8 9 31 68 38 97 1 3 7 18 13 33 7 16 12 31 12
33 0 3 12 31 26 62 27 59 46 103 49 112 0 3 13 29 28 57 15 29 27 55 27 58 0
3 4 11 10 18 6 6 29 44 52 82 95 161 289 394 519 624 86 87 118 117 230 216
18 17 72 61 119 98 47 37 92 74 100 80 31 26 266 184 300 203 19 10 37 22 40
25 6 7 252 144 260 144 3 1 25 11 50 24 51 27 168 78 290 127 47 19 94 39 105
44 11 5 63 26 115 46 272 104 407 157 430 166 14 6 32 12 40 14 9 2 42 15 73
29 32 14 62 25 67 25 6 0 29 8 53 19 23 10 69 29 102 41 77 29 126 49 147 60
10 6 23 10 29 10 6 0 25 7 42 15 18 8 68 28 112 45 44 18 98 40 120 50 62 28
119 53 125 55 18 5 222 111 290 151 45 27 101 60 123 73 23 13 44 27 47 30 3
3 34 26 70 50 106 73 251 191 338 276 28 29 52 50 52 47 0 -3 10 8 23 24 12
17 39 48 60 71 86 93 232 292 294 403 61 109 93 172 93 184 0 8 4 16 8 18 4 2
27 50 50 108 24 58 47 113 52 122 6 10 10 22 10 27 0 5 5 22 12 38 14 34 13
31 23 68 4 17 11 35 16 40 4 6 7 12 6 15 0 3 14 50 31 105 28 90 73 260 86
325 3 14 12 61 21 105 9 44 18 94 20 110 3 17 7 39 9 51 2 12 7 45 11 74 4 29
9 62 11 74 2 12 6 55 10 96 3 41 7 95 10 120 10 116 4 444 -12 605 -4 44 -8
95 -8 113 -1 17 -4 32 -7 32 -3 0 -6 15 -7 33 -1 17 -4 42 -7 55 -12 51 -15
68 -20 107 -7 45 -53 252 -62 275 -3 8 -8 23 -10 33 -4 25 -50 171 -73 232
-10 28 -26 73 -36 100 -10 28 -19 52 -20 55 -1 7 -22 57 -39 95 -7 16 -21 50
-32 75 -18 46 -167 344 -193 390 -8 14 -19 28 -25 32 -5 4 -7 8 -3 8 8 0 -72
131 -200 328 -48 73 -87 136 -87 140 0 4 -4 12 -8 18 -3 7 -9 39 -11 72 -4 59
7 120 39 217 9 28 18 61 21 75 3 14 11 44 19 67 15 43 16 49 34 143 6 30 14
66 16 80 16 72 22 341 11 430 -15 122 -16 126 -31 193 -3 12 -7 33 -10 47 -3
14 -7 35 -9 46 -9 46 -90 279 -98 282 -4 2 -8 12 -8 22 0 15 -55 128 -205 420
-71 138 -78 249 -30 435 26 99 29 126 29 265 -1 181 -3 196 -50 340 -15 47
-34 93 -42 103 -8 9 -12 17 -8 17 11 0 -61 126 -122 214 -30 44 -56 90 -58
102 -1 13 -5 27 -8 32 -3 5 -8 22 -11 38 -3 16 -11 58 -19 94 -14 62 -15 198
-2 265 7 41 8 244 0 275 -3 14 -7 36 -9 50 -12 83 -37 168 -76 261 -21 49
-109 197 -134 226 -43 48 -160 163 -166 163 -4 0 -14 6 -21 13 -77 76 -343
197 -433 197 -20 0 -45 4 -55 10 -14 8 -19 5 -23 -11z"/>
<path d="M9185 13457 c-8 -4 -15 -6 -15 -3 0 10 -85 -27 -138 -61 -167 -105
-406 -455 -552 -808 -18 -44 -41 -98 -51 -120 -19 -43 -151 -446 -164 -502 -3
-10 -9 -36 -15 -58 -6 -22 -13 -51 -16 -65 -3 -14 -11 -50 -19 -80 -8 -30 -16
-67 -19 -82 -4 -16 -8 -38 -11 -50 -12 -54 -16 -75 -21 -108 -3 -19 -7 -42
-10 -50 -3 -8 -8 -28 -10 -45 -2 -16 -6 -41 -9 -55 -7 -33 -17 -90 -21 -115
-1 -11 -3 -20 -4 -20 -1 0 -3 -9 -4 -20 -3 -21 -17 -109 -22 -135 -2 -8 -6
-37 -10 -65 -3 -27 -7 -53 -9 -56 -2 -3 -6 -25 -9 -50 -9 -66 -14 -100 -21
-139 -3 -19 -8 -52 -10 -73 -2 -21 -9 -63 -14 -95 -6 -31 -13 -75 -15 -97 -3
-22 -8 -56 -11 -75 -2 -19 -7 -51 -9 -70 -3 -19 -7 -44 -9 -55 -3 -11 -8 -51
-12 -90 -4 -38 -8 -72 -10 -75 -3 -5 -9 -45 -20 -140 -3 -25 -8 -56 -10 -70
-2 -14 -6 -45 -10 -70 -18 -141 -53 -188 -152 -206 -21 -4 -45 -10 -53 -14 -8
-5 -28 -10 -45 -13 -16 -3 -43 -10 -60 -17 -16 -7 -37 -13 -45 -14 -19 -3 -93
-23 -150 -43 -25 -8 -52 -16 -60 -18 -8 -2 -55 -15 -105 -30 -49 -15 -117 -35
-150 -45 -105 -32 -399 -130 -430 -144 -16 -8 -82 -35 -145 -62 -175 -72 -329
-154 -477 -251 -36 -24 -67 -43 -69 -43 -3 0 -11 -6 -19 -12 -7 -7 -30 -26
-50 -43 -165 -132 -223 -183 -336 -297 -59 -60 -105 -108 -103 -108 3 0 -11
-17 -30 -37 -63 -69 -206 -272 -206 -292 0 -5 -3 -11 -7 -13 -5 -1 -15 -16
-24 -33 -8 -16 -24 -48 -36 -70 -45 -86 -127 -295 -137 -350 -1 -5 -5 -19 -9
-30 -3 -11 -8 -31 -11 -45 -2 -14 -11 -63 -19 -110 -9 -47 -16 -92 -16 -100 0
-8 -3 -44 -6 -80 -13 -138 -8 -472 9 -595 9 -61 18 -128 21 -152 2 -12 6 -36
11 -55 4 -18 8 -42 10 -53 5 -33 13 -65 18 -73 3 -5 7 -19 10 -33 13 -65 39
-155 47 -163 5 -6 9 -16 9 -24 0 -45 148 -361 228 -487 75 -118 116 -180 122
-185 3 -3 19 -23 36 -45 16 -22 38 -50 49 -62 11 -12 38 -43 60 -68 96 -113
283 -290 390 -370 42 -31 70 -53 89 -70 6 -6 60 -44 121 -85 127 -86 294 -174
415 -219 47 -17 94 -36 105 -41 21 -9 117 -44 125 -46 3 0 18 -6 33 -12 16 -7
31 -12 34 -12 3 0 19 -6 36 -14 18 -7 52 -22 76 -32 25 -10 53 -27 63 -38 27
-29 26 -43 -26 -331 -2 -11 -18 -83 -36 -160 -17 -77 -33 -147 -35 -155 -2 -8
-4 -15 -5 -15 -1 0 -3 -7 -5 -15 -1 -8 -13 -49 -25 -90 -12 -41 -22 -77 -22
-80 0 -3 -4 -11 -10 -17 -6 -7 -8 -13 -5 -13 6 0 -21 -75 -80 -225 -43 -107
-191 -396 -213 -415 -3 -3 -18 -25 -34 -50 -90 -140 -235 -300 -366 -402 -110
-86 -113 -88 -127 -88 -7 0 -13 -4 -13 -8 0 -14 -230 -123 -290 -138 -8 -2
-40 -10 -70 -18 -139 -39 -329 -41 -461 -6 -24 7 -48 13 -54 15 -32 7 -172 69
-220 97 -29 17 -26 18 130 15 113 -3 171 0 198 9 20 7 37 11 37 9 0 -13 124
61 167 99 51 46 126 155 126 183 0 7 5 13 10 13 6 0 8 2 5 6 -3 3 0 24 7 47
13 43 13 162 1 229 -13 66 -76 177 -135 237 -182 183 -455 214 -676 78 -78
-48 -155 -148 -195 -252 -34 -91 -33 -220 3 -335 28 -86 101 -221 131 -242 6
-4 8 -8 5 -8 -10 0 101 -111 141 -141 51 -38 170 -110 170 -102 0 3 9 -2 20
-12 11 -10 20 -15 20 -10 0 4 10 1 23 -7 12 -8 36 -19 52 -23 17 -5 33 -9 38
-10 4 -2 9 -4 12 -5 3 -1 10 -4 15 -5 6 -1 11 -3 13 -5 1 -1 18 -4 37 -7 19
-2 41 -8 50 -12 19 -9 243 -6 290 4 19 4 46 9 60 10 57 6 203 60 328 122 72
36 132 70 132 74 0 5 5 9 11 9 14 0 94 57 174 124 215 181 395 423 547 733 34
70 63 130 63 133 1 3 7 19 14 35 14 34 55 137 56 145 1 3 4 12 8 20 52 132
154 519 171 650 2 8 5 24 9 35 3 11 8 38 12 60 21 146 57 174 195 152 19 -3
58 -9 85 -12 28 -4 61 -9 75 -11 156 -26 565 -25 710 1 14 2 54 9 90 15 36 5
76 12 90 15 14 4 36 8 50 11 14 2 32 7 40 10 8 3 24 8 35 10 100 19 338 116
460 187 232 135 434 329 588 563 26 39 47 76 47 82 0 6 4 12 9 14 7 2 123 223
120 230 0 3 9 27 41 108 20 50 34 91 45 130 2 8 16 53 30 100 14 47 27 99 30
115 2 17 7 41 10 55 3 14 8 38 10 53 2 16 6 40 10 55 3 15 7 47 10 72 2 25 7
77 11 115 12 128 7 381 -10 520 -3 25 -17 114 -22 140 -2 11 -7 33 -9 49 -3
16 -10 37 -15 46 -5 10 -7 19 -5 22 5 4 -6 45 -23 88 -3 8 -6 17 -7 20 -11 44
-33 102 -61 165 -10 22 -18 42 -19 45 0 8 -63 131 -85 167 -21 34 -45 72 -103
155 -51 76 -311 338 -334 338 -2 0 -27 17 -56 38 -69 48 -85 59 -127 79 -19
10 -47 26 -62 36 -16 10 -28 15 -28 11 0 -4 -9 1 -21 12 -12 10 -23 18 -25 16
-2 -1 -21 5 -42 14 -47 20 -112 44 -132 49 -8 2 -45 13 -81 24 -37 12 -89 25
-115 31 -27 5 -58 11 -70 14 -12 2 -45 7 -75 11 -30 4 -65 9 -79 11 -14 3
-131 6 -260 9 -129 2 -238 4 -241 4 -5 1 -4 66 1 66 2 0 9 37 14 80 2 22 5 40
6 40 3 0 8 41 24 182 8 70 34 122 74 150 28 19 121 59 157 68 15 3 33 10 265
102 213 85 415 177 426 194 3 5 14 9 25 9 10 0 19 4 19 9 0 5 14 14 31 21 36
15 322 204 355 235 6 5 30 26 54 45 56 45 184 165 224 209 17 19 42 46 56 61
99 106 238 301 311 436 18 32 42 77 54 99 26 48 114 252 120 280 2 6 15 44 29
85 15 41 26 75 25 75 -1 0 4 20 11 45 7 25 14 53 16 62 2 10 6 28 9 41 3 12 8
36 10 52 3 17 8 37 10 45 13 47 29 165 42 305 13 156 7 467 -12 585 -4 19 -8
53 -9 75 -2 22 -4 40 -6 40 -2 0 -5 20 -13 80 -12 85 -100 404 -128 460 -6 12
-11 27 -13 35 -7 34 -116 263 -128 268 -5 2 -8 10 -8 18 0 8 -4 14 -9 14 -5 0
-12 9 -16 19 -3 11 -18 35 -33 53 -15 19 -36 47 -47 63 -26 37 -205 215 -215
215 -5 0 -15 6 -22 13 -32 32 -183 120 -208 122 -3 0 -9 3 -15 6 -34 21 -211
33 -240 16z m165 -110 c8 -1 44 -16 80 -33 175 -83 354 -289 447 -514 37 -89
57 -141 59 -155 1 -5 14 -53 28 -106 15 -53 28 -115 31 -138 2 -22 6 -45 9
-50 3 -5 9 -38 12 -73 3 -34 7 -79 9 -98 7 -58 6 -291 0 -360 -12 -118 -14
-135 -15 -135 -3 0 -10 -41 -15 -80 -5 -46 -13 -92 -22 -120 -4 -11 -8 -25 -9
-31 -11 -61 -75 -255 -115 -349 -7 -16 -13 -32 -14 -35 -1 -3 -10 -23 -20 -45
-10 -22 -17 -43 -17 -47 1 -5 -2 -8 -7 -8 -5 0 -12 -13 -16 -28 -3 -15 -19
-48 -35 -72 -17 -25 -30 -48 -30 -52 0 -27 -204 -310 -289 -401 -106 -113
-272 -258 -340 -297 -14 -8 -29 -19 -32 -23 -7 -9 -67 -43 -179 -101 -88 -45
-261 -112 -365 -142 -33 -9 -67 -19 -75 -22 -19 -6 -30 -9 -55 -15 -11 -2 -27
-7 -35 -10 -8 -4 -26 -8 -40 -11 -14 -2 -45 -9 -70 -16 -56 -16 -112 -21 -106
-11 4 6 25 155 41 291 3 25 7 55 9 67 3 12 8 53 11 90 4 37 8 75 10 83 2 8 7
35 10 60 3 25 8 52 10 60 2 8 7 39 10 69 4 30 9 63 11 75 2 12 7 39 10 61 2
22 7 54 10 70 3 17 7 41 9 55 2 14 7 44 9 67 3 23 10 61 15 85 6 24 13 66 17
93 3 28 8 59 11 70 2 11 6 34 9 50 3 17 10 57 16 90 6 33 12 70 13 82 2 11 6
29 9 40 3 10 8 36 12 58 3 22 7 45 8 50 1 6 4 15 7 20 4 6 5 18 4 28 -2 9 1
17 6 17 6 0 8 4 4 9 -3 5 4 52 16 103 21 95 46 207 53 243 2 11 9 40 15 65 15
58 20 80 26 105 10 46 14 65 39 160 90 340 155 559 191 640 36 81 59 130 64
135 3 3 7 11 8 17 4 19 86 142 124 188 53 62 121 125 136 125 7 0 13 4 13 9 0
10 71 40 122 50 29 6 96 5 138 -2z m-1599 -4549 c2 -15 1 -16 -5 -55 -3 -15
-8 -53 -11 -83 -3 -30 -8 -67 -11 -82 -2 -16 -6 -43 -9 -60 -17 -106 -30 -149
-48 -169 -17 -18 -112 -67 -142 -73 -46 -9 -288 -117 -305 -136 -3 -3 -30 -21
-60 -40 -59 -37 -67 -43 -139 -104 -48 -41 -141 -132 -141 -140 0 -2 -13 -17
-28 -34 -80 -86 -196 -292 -243 -435 -31 -89 -33 -99 -46 -167 -8 -47 -8 -316
1 -360 41 -202 97 -299 214 -375 49 -32 62 -28 34 12 -39 56 -81 154 -98 230
-20 91 -6 253 31 353 9 25 18 50 19 55 7 27 60 135 68 135 4 0 8 9 8 19 0 11
6 26 13 33 6 7 34 46 60 85 72 107 201 231 312 300 88 55 285 138 354 149 l33
6 -6 -49 c-4 -26 -9 -62 -11 -79 -9 -78 -27 -201 -31 -224 -3 -14 -7 -43 -9
-65 -2 -22 -6 -49 -8 -61 -3 -12 -8 -43 -11 -70 -13 -102 -24 -178 -31 -210
-8 -35 -19 -128 -20 -156 0 -16 -3 -28 -8 -28 -4 0 -6 -3 -5 -7 2 -7 -12 -127
-17 -143 -1 -7 -18 -120 -20 -145 -2 -11 -5 -32 -8 -46 -5 -23 -11 -68 -23
-164 -1 -11 -3 -20 -4 -20 -1 0 -3 -11 -5 -25 -3 -30 -13 -101 -22 -155 -9
-55 -10 -63 -17 -120 -4 -27 -9 -61 -11 -75 -7 -34 -15 -89 -20 -131 -2 -19
-6 -45 -10 -59 -3 -14 -7 -43 -10 -65 -2 -22 -6 -56 -10 -75 -10 -65 -20 -131
-29 -200 -11 -86 -23 -165 -26 -165 -1 0 -3 -21 -5 -47 -2 -26 -6 -51 -8 -55
-3 -5 -8 -40 -12 -78 -4 -39 -9 -79 -12 -90 -3 -11 -6 -33 -8 -50 -2 -16 -6
-46 -9 -65 -16 -107 -28 -187 -31 -200 -1 -8 -6 -34 -10 -57 -10 -62 -43 -85
-109 -78 -28 4 -76 13 -106 21 -30 8 -66 17 -80 20 -30 6 -161 51 -210 73 -19
8 -37 15 -40 16 -3 1 -22 9 -42 19 -21 9 -41 16 -44 15 -4 0 -10 3 -13 8 -3 4
-31 21 -61 37 -30 16 -62 35 -71 42 -8 8 -19 14 -23 14 -7 0 -127 79 -136 90
-3 3 -21 17 -40 30 -71 50 -296 266 -350 338 -14 18 -37 48 -52 65 -15 18 -30
40 -34 50 -3 9 -10 17 -15 17 -5 0 -9 4 -9 10 0 5 -10 21 -22 36 -13 14 -23
30 -23 34 0 5 -8 19 -18 31 -47 55 -217 414 -217 459 0 9 -4 20 -9 26 -5 5
-17 36 -27 69 -19 66 -19 67 -27 110 -3 17 -8 41 -12 55 -31 131 -40 226 -40
420 1 159 6 252 20 320 3 14 8 41 11 60 3 19 8 38 10 41 4 7 16 77 17 97 0 6
5 12 10 12 6 0 7 3 4 7 -4 3 -2 12 4 20 6 7 9 13 6 13 -17 0 96 264 149 348
19 29 34 55 34 58 0 2 4 10 10 17 5 7 33 44 62 82 127 170 272 304 488 451 25
17 52 34 60 37 8 4 33 18 55 32 55 35 157 88 173 91 7 1 20 8 29 15 8 8 29 19
47 25 17 7 78 31 136 54 57 23 109 43 115 45 5 1 24 8 40 14 17 7 37 14 45 16
8 2 46 13 84 25 38 12 76 23 85 25 9 2 41 11 71 20 63 19 243 64 279 71 13 3
32 9 43 15 10 5 18 8 18 5 0 -3 15 0 33 5 31 10 41 13 87 24 27 7 45 11 119
29 34 8 66 17 69 20 9 10 22 6 23 -6z m441 -902 c37 -4 76 -9 87 -11 12 -3 31
-7 44 -10 12 -3 37 -7 54 -10 31 -4 150 -40 223 -68 183 -69 407 -231 509
-367 14 -19 28 -37 31 -40 4 -3 17 -23 30 -45 13 -22 27 -42 30 -45 9 -8 77
-161 93 -210 17 -50 37 -125 43 -155 2 -11 6 -31 9 -45 18 -90 25 -163 30
-295 2 -61 4 -115 5 -120 1 -6 1 -12 0 -15 -1 -3 -4 -30 -6 -61 -3 -51 -10
-104 -14 -104 -1 0 -3 -22 -5 -50 -5 -62 -9 -91 -18 -130 -4 -16 -9 -39 -12
-50 -2 -11 -12 -49 -20 -85 -9 -36 -18 -72 -20 -80 -5 -25 -82 -235 -93 -256
-5 -10 -27 -53 -48 -94 -142 -283 -350 -515 -620 -692 -82 -54 -225 -132 -244
-133 -3 0 -10 -3 -16 -7 -12 -8 -200 -77 -212 -78 -4 0 -25 -5 -47 -11 -59
-16 -76 -20 -116 -23 -20 -2 -41 -6 -46 -9 -5 -3 -33 -8 -63 -12 -30 -3 -68
-8 -84 -11 -60 -10 -299 -12 -324 -3 -41 16 -44 30 -29 124 3 17 10 62 16 100
16 98 19 120 21 120 1 0 3 14 5 30 6 47 14 98 19 120 2 11 7 40 10 65 3 25 8
56 11 70 3 14 8 40 10 58 3 17 8 49 11 70 3 20 7 48 9 62 2 14 4 25 5 25 3 0
9 45 14 96 2 26 6 55 10 65 6 22 12 58 22 129 3 28 7 52 9 55 2 3 6 30 10 60
5 30 9 64 11 75 1 11 3 20 4 20 1 0 3 11 5 25 1 14 5 42 9 63 3 20 9 54 12 75
8 54 13 84 19 112 3 14 7 41 9 60 3 19 8 49 11 65 4 17 8 46 10 65 1 19 4 35
5 35 1 0 3 13 5 29 6 44 24 158 30 186 3 14 7 43 10 65 2 22 7 51 10 65 3 14
8 45 11 70 3 25 8 56 10 70 3 14 6 36 8 50 5 35 15 101 21 130 3 14 8 45 11
70 3 25 8 54 11 65 2 11 6 38 9 60 2 22 9 63 14 90 6 28 13 70 16 95 3 25 8
54 9 65 2 11 6 38 10 60 3 22 8 51 10 65 3 14 7 43 11 65 10 76 14 94 25 121
10 27 37 53 68 65 18 7 181 4 273 -5z"/>
</g>
</svg>
